
<svg viewBox="0 0 384 384" xmlns="http://www.w3.org/2000/svg">
    <path fill="#ed2038" d="m192 0c-105.871094 0-192 86.128906-192 192s86.128906 192 192 192h16v-32h-16c-88.222656 0-160-71.777344-160-160s71.777344-160 160-160 160 71.777344 160 160v16h32v-16c0-105.871094-86.128906-192-192-192zm0 0"/><path d="m192 64h-16v32h16c52.9375 0 96 43.0625 96 96s-43.0625 96-96 96-96-43.0625-96-96v-16h-32v16c0 70.574219 57.425781 128 128 128s128-57.425781 128-128-57.425781-128-128-128zm0 0"/><path d="m192 160h16v-32h-16c-35.289062 0-64 28.710938-64 64s28.710938 64 64 64 64-28.710938 64-64v-16h-32v16c0 17.648438-14.351562 32-32 32s-32-14.351562-32-32 14.351562-32 32-32zm0 0"/>
</svg>